<svg width="364" height="68" viewBox="0 0 364 68" fill="none" xmlns="http://www.w3.org/2000/svg"><path fill-rule="evenodd" clip-rule="evenodd" d="M6.27 47.401c-3.088-15.59 7.52-34.715 13.213-43.565C15.012 1.38 11.91.046 11.91.046S-5.2 29.919 1.595 50.25C5.34 61.452 16.05 68.355 27.297 67.765 17.034 66.073 8.409 58.205 6.269 47.4z" fill="#001C4C"/><path fill-rule="evenodd" clip-rule="evenodd" d="M9.326 37.591c2.103-10.984 11.148-21.045 19.32-28.158a114.62 114.62 0 0 0-9.163-5.597C13.789 12.686 3.182 31.81 6.269 47.402c2.14 10.804 10.765 18.671 21.028 20.362a25.488 25.488 0 0 0 2.055-.19C15.629 64.736 6.682 51.401 9.326 37.591z" fill="#005FFF"/><path fill-rule="evenodd" clip-rule="evenodd" d="M15.646 34.082C18.45 25.57 25.6 18.22 32.97 12.547a95.24 95.24 0 0 0-4.324-3.114c-8.172 7.113-17.217 17.174-19.32 28.158-2.644 13.81 6.303 27.145 20.026 29.983a25.73 25.73 0 0 0 3.636-.756 25.554 25.554 0 0 1-.979-.296c-13.477-4.44-20.802-18.964-16.363-32.44z" fill="#5D99FF"/><path fill-rule="evenodd" clip-rule="evenodd" d="M53.924 0s-3.107 1.35-7.579 3.833c5.758 8.84 16.43 27.847 13.448 43.421-2.082 10.874-10.735 18.824-21.057 20.525 11.281.584 22.01-6.373 25.714-17.62C71.157 29.8 53.924 0 53.924 0z" fill="#001C4C"/><path fill-rule="evenodd" clip-rule="evenodd" d="M59.793 47.254c2.982-15.574-7.69-34.58-13.448-43.421a114.557 114.557 0 0 0-9.1 5.61c8.199 7.06 17.263 17.038 19.43 27.978 2.745 13.867-6.228 27.333-20.058 30.159.707.096 1.414.162 2.119.199 10.322-1.702 18.975-9.651 21.057-20.525z" fill="#005FFF"/><path fill-rule="evenodd" clip-rule="evenodd" d="M50.33 33.966c4.498 13.458-2.767 28.013-16.225 32.51-.371.124-.744.236-1.117.342a25.63 25.63 0 0 0 3.628.761c13.83-2.825 22.804-16.29 20.059-30.158-2.167-10.94-11.231-20.919-19.43-27.977a96.124 96.124 0 0 0-4.275 3.102c7.376 5.637 14.527 12.941 17.36 21.42z" fill="#5D99FF"/><path fill-rule="evenodd" clip-rule="evenodd" d="M99.791 51.412C93.634 46.008 92 38.972 92 32.877c0-4.273 1.32-11.688 7.35-17.217C103.876 11.514 109.846 9 119.208 9c3.895 0 6.22.251 9.11.628 2.388.314 4.398.88 6.284 1.068.691.063.942.377.942.754 0 .503-.188 1.258-.315 3.457-.125 2.073-.062 5.529-.188 6.786-.062.941-.188 1.444-.753 1.444-.504 0-.629-.503-.629-1.382-.062-1.948-.88-4.147-2.451-5.78-2.073-2.2-6.974-3.896-12.755-3.896-5.466 0-9.047 1.382-11.812 3.896-4.587 4.21-5.781 10.178-5.781 16.273 0 14.955 11.373 22.369 19.793 22.369 5.592 0 8.985-.628 11.498-3.519 1.069-1.194 1.885-3.016 2.137-4.147.188-1.005.314-1.257.816-1.257.44 0 .566.44.566.943 0 .754-.755 6.22-1.382 8.356-.315 1.07-.566 1.383-1.634 1.823-2.514 1.005-7.289 1.445-11.31 1.445-8.608 0-15.834-1.885-21.552-6.849zM184.8 34.824c0-14.074-8.106-22.808-18.41-22.808-7.226 0-15.457 4.021-15.457 19.667 0 13.069 7.225 23.436 19.289 23.436 4.399 0 14.578-2.136 14.578-20.295zm-42.538-1.193c0-10.745 7.1-24.631 25.95-24.631 15.645 0 25.384 9.11 25.384 23.5 0 14.388-10.053 25.761-26.012 25.761-18.033 0-25.322-13.51-25.322-24.63zm58.215-17.593c-.754-2.326-1.445-3.834-2.325-4.462-.691-.44-1.948-.565-2.513-.565-.628 0-1.005-.063-1.005-.566 0-.44.502-.565 1.382-.565 3.268 0 6.723.188 7.289.188.565 0 3.33-.188 6.974-.188.88 0 1.32.188 1.32.565 0 .503-.504.566-1.131.566-.503 0-1.132 0-1.571.251-.565.251-.691.691-.691 1.382 0 .817.628 2.953 1.382 5.781 1.068 4.147 6.911 23.186 8.043 26.704h.188l12.19-32.799c.628-1.76 1.068-2.262 1.571-2.262.691 0 1.005.943 1.821 2.953l13.07 31.668h.188c1.131-4.21 6.158-20.797 8.357-28.15.44-1.445.629-2.763.629-3.643 0-1.006-.566-1.885-3.016-1.885-.629 0-1.068-.189-1.068-.566 0-.44.502-.565 1.445-.565 3.33 0 5.968.188 6.535.188.439 0 3.141-.188 5.214-.188.691 0 1.131.125 1.131.502 0 .44-.314.629-.879.629-.629 0-1.508.063-2.199.314-1.508.565-2.199 3.078-3.519 6.66-2.89 7.917-9.487 27.898-12.567 37.323-.691 2.2-1.006 2.953-1.822 2.953-.628 0-1.005-.754-1.947-3.079l-13.07-31.542h-.126c-1.193 3.204-9.55 25.51-12.252 31.29-1.194 2.578-1.508 3.33-2.262 3.33-.628 0-.88-.69-1.445-2.324l-13.321-39.898zm84.38 17.027c0 .691.126.942.566 1.13 1.319.44 3.205.63 4.775.63 2.513 0 3.33-.252 4.461-1.069 1.885-1.382 3.707-4.272 3.707-9.425 0-8.922-5.906-11.499-9.613-11.499-1.571 0-2.702.064-3.33.252-.44.125-.566.377-.566.88v19.101zm-7.414-4.963c0-9.552 0-11.31-.126-13.322-.125-2.136-.628-3.141-2.701-3.58-.503-.127-1.571-.189-2.451-.189-.691 0-1.068-.126-1.068-.565 0-.44.44-.567 1.382-.567 3.33 0 7.289.189 8.609.189 2.136 0 6.911-.189 8.858-.189 3.959 0 8.169.378 11.562 2.703 1.759 1.193 4.273 4.398 4.273 8.608 0 4.65-1.948 8.922-8.295 14.075 5.593 7.036 9.929 12.629 13.635 16.524 3.519 3.645 6.095 4.084 7.038 4.273.691.125 1.256.189 1.759.189.503 0 .754.188.754.502 0 .502-.44.629-1.194.629h-5.969c-3.519 0-5.089-.315-6.723-1.195-2.702-1.444-5.089-4.398-8.609-9.236-2.513-3.455-5.403-7.729-6.22-8.67-.314-.378-.691-.441-1.13-.441l-5.467-.125c-.314 0-.503.125-.503.502v.88c0 5.843 0 10.807.314 13.446.189 1.823.566 3.205 2.451 3.456.942.126 2.324.252 3.079.252.502 0 .754.188.754.502 0 .44-.441.629-1.257.629-3.644 0-8.294-.189-9.236-.189-1.194 0-5.153.189-7.666.189-.817 0-1.256-.189-1.256-.63 0-.313.25-.501 1.005-.501.942 0 1.696-.126 2.262-.252 1.256-.251 1.57-1.633 1.822-3.456.314-2.639.314-7.603.314-13.383V28.102zm58.345 13.006c0-3.393-.628-4.775-1.446-6.598-.439-1.005-8.859-14.829-11.058-18.096-1.571-2.325-3.141-3.896-4.336-4.586-.816-.44-1.885-.817-2.639-.817-.502 0-.942-.126-.942-.565 0-.378.44-.567 1.194-.567 1.131 0 5.843.189 7.917.189 1.319 0 3.896-.189 6.723-.189.628 0 .943.189.943.567 0 .377-.44.439-1.383.69-.566.126-.879.628-.879 1.132 0 .502.313 1.256.754 2.136.879 1.885 9.676 17.027 10.681 18.787.628-1.508 8.545-15.332 9.425-17.28.629-1.382.88-2.45.88-3.266 0-.629-.251-1.32-1.32-1.572-.565-.125-1.131-.25-1.131-.627 0-.44.314-.567 1.068-.567 2.074 0 4.084.189 5.907.189 1.382 0 5.529-.189 6.722-.189.692 0 1.132.126 1.132.503 0 .44-.503.629-1.194.629-.629 0-1.822.25-2.765.753-1.319.63-2.01 1.383-3.393 3.08-2.073 2.513-10.869 17.279-12.001 19.98-.942 2.263-.942 4.21-.942 6.284v5.152c0 1.005 0 3.644.189 6.283.125 1.823.691 3.205 2.576 3.456.879.126 2.261.252 3.141.252.691 0 1.005.188 1.005.502 0 .44-.502.629-1.319.629-3.959 0-7.917-.189-9.613-.189-1.571 0-5.53.189-7.855.189-.879 0-1.382-.127-1.382-.63 0-.313.314-.501 1.005-.501.88 0 1.634-.126 2.199-.252 1.257-.251 1.823-1.633 1.948-3.456.189-2.639.189-5.278.189-6.283v-5.152z" fill="#001C4C"/></svg>